<svg xmlns="http://www.w3.org/2000/svg" version="1.1" xmlns:xlink="http://www.w3.org/1999/xlink" xmlns:svgjs="http://svgjs.dev/svgjs" width="2000" height="600" preserveAspectRatio="none" viewBox="0 0 2000 600"><g mask="url(&quot;#SvgjsMask1005&quot;)" fill="none"><rect width="2000" height="600" x="0" y="0" fill="rgba(10, 15, 13, 1)"></rect><path d="M98.08 0C131.86 13.82 114.96 47.44 150 61.36C215.92 87.55 236.45 98.56 300 80.23C342.81 67.88 322.34 21.6 362.73 0C397.34 -18.51 406.37 0 450 0C525 0 525 0 600 0C675 0 675 0 750 0C825 0 825 0 900 0C975 0 975 0 1050 0C1125 0 1125 0 1200 0C1275 0 1275 0 1350 0C1415.36 0 1427.52 -17.73 1480.71 0C1502.52 7.27 1477.74 42.33 1500 50C1562.39 71.5 1575.71 63.87 1650 58.33C1725.71 52.68 1725.66 45.6 1800 27.63C1846.31 16.43 1844.87 8.55 1891.3 0C1919.87 -5.26 1920.65 0 1950 0C2025 0 2059.73 -34.73 2100 0C2134.73 29.96 2114.63 73.53 2100 129.38C2094.98 148.53 2060.71 133.15 2060.71 150C2060.71 184.71 2088.7 189.36 2100 232.5C2108.35 264.36 2100 266.25 2100 300C2100 337.5 2113.87 342.63 2100 375C2081.73 417.63 2072.51 417.8 2035.71 450C1997.51 483.42 1981.42 468.6 1950 506.25C1918.83 543.6 1946.47 577.54 1910.53 600C1871.47 624.41 1855.26 600 1800 600C1725 600 1725 600 1650 600C1575 600 1575 600 1500 600C1425 600 1425 600 1350 600C1275 600 1275 600 1200 600C1125 600 1125 600 1050 600C975 600 975 600 900 600C825 600 825 600 750 600C675 600 675 600 600 600C525 600 525 600 450 600C375 600 375 600 300 600C225 600 225 600 150 600C83.34 600 83.16 601.62 16.67 600C8.16 599.79 0.87 604.17 0 596.34C-7.46 529.17 0 523.17 0 450C0 375 0 375 0 300C0 225 0 225 0 150C0 75 -29.65 45.35 0 0C19.39 -29.65 56.86 -16.86 98.08 0" stroke="rgba(241, 242, 246, 0.26)" stroke-width="2"></path><path d="M150 338.57C123.27 338.57 90.91 394.11 90.91 450C90.91 507.18 123.3 564.71 150 564.71C175.52 564.71 195.35 507.24 195.35 450C195.35 394.17 175.49 338.57 150 338.57" stroke="rgba(241, 242, 246, 0.26)" stroke-width="2"></path><path d="M1050 440C1047.47 440 1043.18 445.46 1043.18 450C1043.18 453.35 1047.26 455.77 1050 455.77C1051.94 455.77 1052.54 452.99 1052.54 450C1052.54 445.11 1052.15 440 1050 440" stroke="rgba(241, 242, 246, 0.26)" stroke-width="2"></path><path d="M1350 408.33C1330.32 408.33 1327.94 428.05 1327.94 450C1327.94 486.39 1323.51 525 1350 525C1402.72 525 1486.36 480.44 1486.36 450C1486.36 422.11 1409.53 408.33 1350 408.33" stroke="rgba(241, 242, 246, 0.26)" stroke-width="2"></path><path d="M1800 391.07C1779.81 391.07 1773.39 423.23 1773.39 450C1773.39 465.01 1784.1 474.63 1800 474.63C1833.27 474.63 1871.74 468.79 1871.74 450C1871.74 427.01 1828.99 391.07 1800 391.07" stroke="rgba(241, 242, 246, 0.26)" stroke-width="2"></path><path d="M0 60C21.21 60 53.93 97.68 75 150C102.26 217.68 106.54 227.62 96.67 300C86.09 377.62 68.68 376.7 34.09 450C20.34 479.14 9.22 504.88 0 504.88C-7.83 504.88 0 477.44 0 450C0 375 0 375 0 300C0 225 0 225 0 150C0 105 -16.29 60 0 60" stroke="rgba(241, 242, 246, 0.26)" stroke-width="2"></path><path d="M327.78 150C352.14 67.93 375.6 67.88 430.91 0C436.71 -7.12 440.46 0 450 0C525 0 525 0 600 0C675 0 675 0 750 0C825 0 825 0 900 0C975 0 975 0 1050 0C1113.46 0 1159.15 -33.49 1176.92 0C1198.94 41.51 1122.72 81.42 1129.59 150C1134.26 196.54 1161.98 230.23 1200 230.23C1243.81 230.23 1288.68 198.94 1293.24 150C1299.4 83.83 1205.42 42.3 1221.43 0C1233.8 -32.7 1285.72 0 1350 0C1388.57 0 1410.29 -25.28 1427.14 0C1460.29 49.72 1424.53 82.88 1450 150C1460.96 178.88 1480.28 166.46 1500 192C1538.2 241.46 1565.85 250.13 1565.85 300C1565.85 336.28 1539.16 363.53 1500 364.29C1431.24 365.62 1406.21 282.97 1350 304.17C1292.6 325.82 1286.09 373.07 1272.79 450C1260.52 520.98 1320.93 554.53 1298.86 600C1284.53 629.53 1249.43 600 1200 600C1125 600 1070.05 635.84 1050 600C1028.1 560.84 1102.23 528.19 1116.1 450C1128.84 378.19 1125.85 366.58 1103.23 300C1092.8 269.29 1080.12 255.41 1050 255.41C998.51 255.41 983.7 265.16 940 300C908.7 324.95 934.16 357.81 900 375C839.16 405.63 816.39 414.67 750 395.65C685.46 377.17 688.22 352.81 638.14 300C613.22 273.73 620.89 237.5 600 237.5C577.36 237.5 578.55 271.53 551.09 300C503.55 349.28 499.14 345.09 450 393C422.21 420.09 404.58 414.73 397.22 450C382.97 518.23 435.2 556.15 406.78 600C386.59 631.15 353.39 600 300 600C246.61 600 205.59 630.38 193.22 600C175.06 555.38 209.48 522.22 238.95 450C262.87 391.37 264.41 390.18 300 338.3C315.86 315.18 338.06 325.76 341.86 300C351.95 231.61 307.62 217.93 327.78 150" stroke="rgba(241, 242, 246, 0.26)" stroke-width="2"></path><path d="M1661.25 150C1661.25 105.04 1727.02 87.31 1800 76.97C1871.4 66.85 1884.12 81.02 1950 109.09C1969.83 117.54 1961.21 129.29 1971.43 150C2008.31 224.75 2050.05 231.33 2044.19 300C2039.33 356.96 1999.7 401.25 1950 401.25C1894.75 401.25 1892.77 349.87 1834.29 300C1817.77 285.91 1816.41 287.55 1800 273.33C1729.89 212.55 1661.25 203.22 1661.25 150" stroke="rgba(241, 242, 246, 0.26)" stroke-width="2"></path><path d="M2100 82.5C2065.63 82.5 1990 22.92 1990 0C1990 -18.33 2068.57 -23.57 2100 0C2123.57 17.68 2120.63 82.5 2100 82.5" stroke="rgba(241, 242, 246, 0.26)" stroke-width="2"></path><path d="M1572 450C1613.1 412.54 1613.12 370.41 1650 370.41C1683.57 370.41 1678.33 413.09 1712.9 450C1753.33 493.18 1758.34 488.46 1800 530.6C1832.48 563.46 1861.18 579.11 1861.18 600C1861.18 613.81 1830.59 600 1800 600C1725 600 1725 600 1650 600C1575 600 1575 600 1500 600C1445.84 600 1391.67 620.04 1391.67 600C1391.67 573.61 1445.16 552.75 1500 507.14C1535.33 477.75 1538.1 480.9 1572 450" stroke="rgba(241, 242, 246, 0.26)" stroke-width="2"></path><path d="M497.22 600C497.22 578.93 547.74 523.97 600 523.97C655.77 523.97 713.27 579.23 713.27 600C713.27 617.25 656.63 600 600 600C548.61 600 497.22 616.94 497.22 600" stroke="rgba(241, 242, 246, 0.26)" stroke-width="2"></path><path d="M600 121.43C551.27 117.49 527.14 40.09 527.14 0C527.14 -20.63 563.57 0 600 0C675 0 675 0 750 0C760.22 0 770.45 -3.86 770.45 0C770.45 5.14 761.09 10.1 750 18C675.86 70.82 662.7 126.49 600 121.43" stroke="rgba(241, 242, 246, 0.26)" stroke-width="2"></path><path d="M839.19 150C839.19 117.34 866.72 113.82 900 83.82C949.91 38.82 949.16 31.52 1005.56 0C1024.16 -10.39 1027.78 0 1050 0C1065.39 0 1080.51 -12.59 1080.77 0C1082.04 62.41 1067.95 75.46 1053.06 150C1052.56 152.48 1052.34 153.09 1050 154.05C975.81 184.34 968.37 213.81 900 212.5C862.97 211.79 839.19 181.68 839.19 150" stroke="rgba(241, 242, 246, 0.26)" stroke-width="2"></path><path d="M1350 75C1333.7 75 1310.71 25.61 1310.71 0C1310.71 -11.89 1330.36 0 1350 0C1361.78 0 1373.57 -8.65 1373.57 0C1373.57 28.85 1365.13 75 1350 75" stroke="rgba(241, 242, 246, 0.26)" stroke-width="2"></path><path d="M1755 150C1755 135.42 1776.92 126.32 1800 126.32C1828.45 126.32 1858.06 135.01 1858.06 150C1858.06 166.85 1827.79 190 1800 190C1776.26 190 1755 167.26 1755 150" stroke="rgba(241, 242, 246, 0.26)" stroke-width="2"></path><path d="M2100 35.63C2085.16 35.63 2052.5 9.9 2052.5 0C2052.5 -7.92 2086.43 -10.18 2100 0C2110.18 7.64 2108.91 35.63 2100 35.63" stroke="rgba(241, 242, 246, 0.26)" stroke-width="2"></path><path d="M0 264.71C3.44 264.71 13.33 282.16 13.33 300C13.33 321.23 3.41 342.86 0 342.86C-3.26 342.86 0 321.43 0 300C0 282.36 -3.22 264.71 0 264.71" stroke="rgba(241, 242, 246, 0.26)" stroke-width="2"></path><path d="M429.07 300C429.07 253.55 439.86 200 450 200C460.11 200 469.57 253.21 469.57 300C469.57 312.21 459.94 318 450 318C439.69 318 429.07 312.55 429.07 300" stroke="rgba(241, 242, 246, 0.26)" stroke-width="2"></path><path d="M701.69 300C701.69 268.36 722.53 230.49 750 230.49C782.31 230.49 821.25 269.68 821.25 300C821.25 325.09 783.74 341.3 750 341.3C723.96 341.3 701.69 323.76 701.69 300" stroke="rgba(241, 242, 246, 0.26)" stroke-width="2"></path><path d="M1941.43 300C1941.43 293.53 1946.02 285.71 1950 285.71C1953.8 285.71 1956.98 293.37 1956.98 300C1956.98 304.27 1953.68 307.5 1950 307.5C1945.91 307.5 1941.43 304.42 1941.43 300" stroke="rgba(241, 242, 246, 0.26)" stroke-width="2"></path><path d="M282.56 450C286.73 432.46 289.55 418.09 300 418.09C312.16 418.09 323.05 430.07 327.78 450C344.66 521.03 354.02 541.71 343.22 600C340.13 616.71 321.61 600 300 600C278.39 600 258.71 616.59 256.78 600C249.99 541.59 265.12 523.41 282.56 450" stroke="rgba(241, 242, 246, 0.26)" stroke-width="2"></path><path d="M1179.66 450C1183.66 403.17 1190.48 357.69 1200 357.69C1209.47 357.69 1215.02 403.34 1217.65 450C1221.84 524.5 1221.73 531.25 1213.64 600C1212.9 606.25 1206.82 600 1200 600C1189.65 600 1180.54 609.09 1179.31 600C1170.37 534.09 1173.31 524.32 1179.66 450" stroke="rgba(241, 242, 246, 0.26)" stroke-width="2"></path><path d="M1647 450C1647 447.93 1648.58 446.94 1650 446.94C1651.29 446.94 1652.42 448.09 1652.42 450C1652.42 468.37 1651.35 487.5 1650 487.5C1648.64 487.5 1647 468.21 1647 450" stroke="rgba(241, 242, 246, 0.26)" stroke-width="2"></path><path d="M566.67 600C566.67 593.16 583.05 575.34 600 575.34C618.08 575.34 636.73 593.26 636.73 600C636.73 605.59 618.37 600 600 600C583.34 600 566.67 605.49 566.67 600" stroke="rgba(241, 242, 246, 0.26)" stroke-width="2"></path><path d="M1461.11 600C1461.11 590.53 1476.78 566.67 1500 566.67C1557.99 566.67 1623.53 591.52 1623.53 600C1623.53 608.19 1561.76 600 1500 600C1480.55 600 1461.11 607.19 1461.11 600" stroke="rgba(241, 242, 246, 0.26)" stroke-width="2"></path><path d="M1700 600C1700 596.63 1752.51 586.57 1800 586.57C1808.43 586.57 1811.84 595.96 1811.84 600C1811.84 602.67 1805.92 600 1800 600C1750 600 1700 603.34 1700 600" stroke="rgba(241, 242, 246, 0.26)" stroke-width="2"></path></g><defs><mask id="SvgjsMask1005"><rect width="2000" height="600" fill="#ffffff"></rect></mask></defs></svg>