<svg xmlns="http://www.w3.org/2000/svg" version="1.1" xmlns:xlink="http://www.w3.org/1999/xlink" xmlns:svgjs="http://svgjs.dev/svgjs" width="1440" height="560" preserveAspectRatio="none" viewBox="0 0 1440 560"><g mask="url(&quot;#SvgjsMask1064&quot;)" fill="none"><rect width="1440" height="560" x="0" y="0" fill="url(&quot;#SvgjsLinearGradient1065&quot;)"></rect><path d="M1440 0L842.47 0L1440 29.75z" fill="rgba(255, 255, 255, .1)"></path><path d="M842.47 0L1440 29.75L1440 77.74000000000001L592.96 0z" fill="rgba(255, 255, 255, .075)"></path><path d="M592.96 0L1440 77.74000000000001L1440 352.32L284.08000000000004 0z" fill="rgba(255, 255, 255, .05)"></path><path d="M284.0799999999999 0L1440 352.32L1440 498.46L282.1699999999999 0z" fill="rgba(255, 255, 255, .025)"></path><path d="M0 560L310.31 560L0 431.39z" fill="rgba(0, 0, 0, .1)"></path><path d="M0 431.39L310.31 560L717.05 560L0 239.85z" fill="rgba(0, 0, 0, .075)"></path><path d="M0 239.85000000000002L717.05 560L1051.31 560L0 219.21000000000004z" fill="rgba(0, 0, 0, .05)"></path><path d="M0 219.21000000000004L1051.31 560L1179.03 560L0 120.86000000000004z" fill="rgba(0, 0, 0, .025)"></path></g><defs><mask id="SvgjsMask1064"><rect width="1440" height="560" fill="#ffffff"></rect></mask><linearGradient x1="0%" y1="50%" x2="100%" y2="50%" gradientUnits="userSpaceOnUse" id="SvgjsLinearGradient1065"><stop stop-color="#0e2a47" offset="0"></stop><stop stop-color="rgba(10, 15, 13, 1)" offset="1"></stop></linearGradient></defs></svg>