<svg xmlns="http://www.w3.org/2000/svg" version="1.1" xmlns:xlink="http://www.w3.org/1999/xlink" xmlns:svgjs="http://svgjs.dev/svgjs" width="1440" height="560" preserveAspectRatio="none" viewBox="0 0 1440 560"><g mask="url(&quot;#SvgjsMask1038&quot;)" fill="none"><rect width="1440" height="560" x="0" y="0" fill="rgba(217, 3, 104, 1)"></rect><path d="M 0,219 C 72,198 216,112.2 360,114 C 504,115.8 576,226.8 720,228 C 864,229.2 936,133.4 1080,120 C 1224,106.6 1368,152.8 1440,161L1440 560L0 560z" fill="rgba(10, 15, 13, 0.13)"></path><path d="M 0,344 C 72,362.2 216,421 360,435 C 504,449 576,395.8 720,414 C 864,432.2 936,552.4 1080,526 C 1224,499.6 1368,330.8 1440,282L1440 560L0 560z" fill="rgba(10, 15, 13, 0.07)"></path></g><defs><mask id="SvgjsMask1038"><rect width="1440" height="560" fill="#ffffff"></rect></mask></defs></svg>